<svg width="15" height="18" viewBox="0 0 15 18" fill="none" xmlns="http://www.w3.org/2000/svg">
<path d="M11.141 4.30078C9.56565 4.30078 8.89988 5.06877 7.80278 5.06877C6.67793 5.06877 5.81994 4.30637 4.4548 4.30637C3.11858 4.30637 1.69367 5.13982 0.788796 6.55964C-0.481785 8.56183 -0.266114 12.3327 1.79174 15.5452C2.52783 16.6951 3.51085 17.9848 4.80019 17.9988H4.82363C5.94418 17.9988 6.27706 17.2492 7.81919 17.2404H7.84263C9.3617 17.2404 9.66645 17.9944 10.7823 17.9944H10.8058C12.0951 17.9804 13.1309 16.5514 13.8669 15.4059C14.3967 14.582 14.5937 14.1685 15 13.2364C12.0232 12.082 11.545 7.77069 14.489 6.11776C13.5903 4.96818 12.3276 4.30238 11.1371 4.30238L11.141 4.30078Z" fill="black"/>
<path d="M10.7948 0C9.85714 0.0650633 8.76316 0.674982 8.1224 1.47131C7.54102 2.19299 7.0628 3.26354 7.25034 4.30176H7.32535C8.324 4.30176 9.34609 3.68745 9.94309 2.90031C10.5182 2.15108 10.9542 1.08931 10.7948 0Z" fill="black"/>
</svg>
