<svg width="19" height="25" viewBox="0 0 19 25" fill="none" xmlns="http://www.w3.org/2000/svg">
<path d="M9.4895 16.2759C9.94092 16.2759 10.3293 15.8979 10.3293 15.457V4.67554L10.2664 3.10083L10.9697 3.84619L12.5654 5.54687C12.7124 5.71484 12.9224 5.79883 13.1323 5.79883C13.5627 5.79883 13.8987 5.48389 13.8987 5.05347C13.8987 4.83301 13.8042 4.66504 13.6467 4.50757L10.0984 1.0852C9.88843 0.875242 9.70996 0.801756 9.4895 0.801756C9.27954 0.801756 9.10107 0.875242 8.88062 1.0852L5.33228 4.50757C5.1748 4.66504 5.09082 4.83301 5.09082 5.05347C5.09082 5.48389 5.40576 5.79883 5.84668 5.79883C6.04614 5.79883 6.2771 5.71484 6.42407 5.54687L8.00928 3.84619L8.72314 3.10083L8.66016 4.67554V15.457C8.66016 15.8979 9.03809 16.2759 9.4895 16.2759ZM3.47412 24.4958H15.5154C17.7095 24.4958 18.8118 23.4041 18.8118 21.2415V10.7644C18.8118 8.60181 17.7095 7.51001 15.5154 7.51001H12.5864V9.20019H15.4839C16.5232 9.20019 17.1216 9.76709 17.1216 10.8589V21.147C17.1216 22.2388 16.5232 22.8057 15.4839 22.8057H3.49512C2.44531 22.8057 1.86792 22.2388 1.86792 21.147V10.8589C1.86792 9.76709 2.44531 9.20019 3.49512 9.20019H6.40308V7.51001H3.47412C1.28003 7.51001 0.177734 8.60181 0.177734 10.7644V21.2415C0.177734 23.4041 1.28003 24.4958 3.47412 24.4958Z" fill="#007AFF"/>
</svg>
