<svg width="24" height="24" fill="none" xmlns="http://www.w3.org/2000/svg"><path fill-rule="evenodd" clip-rule="evenodd" d="M20 15.418A8 8 0 0 1 9 8H2v10.5A1.5 1.5 0 0 0 3.5 20h15a1.5 1.5 0 0 0 1.5-1.5v-3.082Z" fill="#7F7F7F"/><path fill-rule="evenodd" clip-rule="evenodd" d="M17 15a7 7 0 1 0 0-14 7 7 0 0 0 0 14Zm.75-10a.75.75 0 0 0-1.5 0v2.25H14a.75.75 0 0 0 0 1.5h2.25V11a.75.75 0 0 0 1.5 0V8.75H20a.75.75 0 0 0 0-1.5h-2.25V5ZM9.424 5.424 8.22 4.22A.75.75 0 0 0 7.69 4H2.75a.75.75 0 0 0-.75.75V7h7.062c.068-.544.19-1.072.362-1.576Z" fill="#7F7F7F"/></svg>