<svg width="198" height="64" viewBox="0 0 198 64" fill="none" xmlns="http://www.w3.org/2000/svg">
<path d="M128.827 13.0097L125.348 21.7608C123.872 20.3901 121.711 19.5467 119.391 19.5467C109.533 19.5467 102.996 30.1428 102.996 37.1542C102.996 42.1623 105.474 45.2199 109.533 45.2199C112.801 45.2199 116.913 41.8987 121.183 35.4672H121.342L119.971 38.9465L117.968 41.5824C117.599 43.7438 118.706 45.1144 120.92 45.1144C123.608 45.1144 126.455 43.0585 130.145 38.2085L129.724 37.9449C126.982 40.7916 125.295 42.0041 123.977 42.0041C122.66 42.0041 122.501 41.0552 123.345 38.9465L135.892 7L126.139 8.68694L127.879 9.58313C129.302 10.3212 129.566 11.1119 128.827 13.0097ZM107.951 37.2069C107.951 31.5134 113.118 21.6553 119.497 21.6553C121.553 21.6553 123.081 22.657 124.188 24.8184L120.551 33.9384C117.177 39.1574 113.909 42.0041 111.642 42.0041C109.269 42.0041 107.951 40.4753 107.951 37.2069Z" fill="#FFEC3E"/>
<path d="M143.725 44.8509C151.685 44.8509 159.224 36.0471 159.224 27.5597C159.224 22.8151 156.693 19.5994 152.529 19.5994C148.68 19.5994 144.199 23.8695 140.562 29.8792H140.351L141.827 26.189L144.463 22.5515L145.728 19.2831L135.87 21.2336L137.61 22.1298C139.033 22.8678 139.297 23.6586 138.559 25.5564L128.437 51.9149C127.646 54.0236 126.381 55.2361 124.325 55.447L123.271 55.5524L122.744 56.9231H135.659L136.186 55.5524L135.079 55.447C132.813 55.2361 132.391 54.0763 133.182 51.9149L136.714 42.7422C138.611 44.0601 141.195 44.8509 143.725 44.8509ZM151.105 22.7097C152.687 22.7097 154.268 23.9222 154.268 27.1379C154.268 33.5694 149.524 42.7422 143.409 42.7422C141.195 42.7422 139.033 41.6878 137.768 40.0536L140.72 32.4096C144.674 25.5037 148.68 22.7097 151.105 22.7097Z" fill="#FFEC3E"/>
<path d="M174.328 19.2831L164.418 21.2336L166.157 22.1298C167.581 22.8678 167.897 23.6586 167.106 25.5564L161.729 38.7884C160.042 42.953 161.255 45.1144 163.943 45.1144C166.843 45.1144 169.689 42.8476 173.169 38.2085L172.747 37.9449C170.375 40.4226 168.477 42.0041 167.001 42.0041C165.999 42.0041 165.419 41.3715 166.421 38.9465L174.328 19.2831ZM171.218 13.9587H176.49L178.704 8.73966H173.432L171.218 13.9587Z" fill="#FFEC3E"/>
<path d="M180.774 35.0982C180.774 29.8265 184.465 21.7081 189.894 21.7081C192.109 21.7081 193.268 22.8151 193.268 24.6602H191.95C191.476 26.7689 192.741 28.5086 194.323 28.5086C195.641 28.5086 197.169 27.2434 197.169 25.0292C197.169 22.3407 194.428 19.5994 189.842 19.5994C181.723 19.5994 175.872 28.8776 175.872 36.0471C175.872 41.3188 178.824 45.2199 184.148 45.2199C187.997 45.2199 191.634 42.8476 194.059 38.4721L193.637 38.3139C191.423 40.6335 188.946 41.8987 186.415 41.8987C182.83 41.8987 180.774 39.3156 180.774 35.0982Z" fill="#FFEC3E"/>
<path d="M15.7081 19.2832L5.79725 21.2337L7.53692 22.1299C8.96028 22.868 9.22386 23.6587 8.48582 25.5565L1 44.7983H5.69182L10.6472 32.0407C14.7592 25.8728 18.5021 22.5517 21.1906 22.5517C22.4558 22.5517 23.2993 23.5006 22.4031 25.8728L15.1282 44.7983H19.7673L24.7754 31.8826C28.8346 25.8201 32.5248 22.5517 35.2134 22.5517C36.4786 22.5517 37.3748 23.5006 36.4259 25.8728L31.1542 38.7885C29.4672 42.9005 30.6797 45.1146 33.3683 45.1146C36.215 45.1146 39.009 42.795 42.4883 38.2086L42.0666 37.945C39.6943 40.4228 37.7965 42.0043 36.3204 42.0043C35.3188 42.0043 34.7389 41.3717 35.7406 38.9467L40.7487 27.0326C42.6465 22.4989 41.2231 19.5468 37.0585 19.5468C33.5264 19.5468 29.0982 23.4479 24.5645 29.9321H24.4064L25.6716 26.769L27.3585 24.5549C27.833 21.3919 26.4096 19.5468 23.0357 19.5468C19.5037 19.5468 15.1282 23.3951 10.6472 29.8266H10.4891L11.6488 26.8745L13.5994 24.3968L15.7081 19.2832Z" fill="#FFEC3E"/>
<path d="M58.7171 17.5308L61.0059 24.9196L67.4241 20.2214L64.7092 27.4785L72.8053 27.2655L66.1237 31.6189L72.8053 35.9724L64.7092 35.7594L67.4241 43.0165L61.0059 38.3183L58.7171 45.7071L56.4283 38.3183L50.0101 43.0165L52.725 35.7594L44.6289 35.9724L51.3105 31.6189L44.6289 27.2655L52.725 27.4785L50.0101 20.2214L56.4283 24.9196L58.7171 17.5308Z" fill="#FFEB00"/>
<path fill-rule="evenodd" clip-rule="evenodd" d="M92.3928 24.8491C92.3928 25.3573 92.3239 25.8494 92.1949 26.3166C92.6623 26.1874 93.1546 26.1185 93.663 26.1185C96.7009 26.1185 99.1635 28.5811 99.1635 31.619C99.1635 34.6568 96.7009 37.1195 93.663 37.1195C93.1546 37.1195 92.6623 37.0505 92.1949 36.9214C92.3239 37.3885 92.3928 37.8806 92.3928 38.3888C92.3928 41.4266 89.9301 43.8893 86.8923 43.8893C83.8545 43.8893 81.3918 41.4266 81.3918 38.3888C81.3918 37.8806 81.4607 37.3885 81.5897 36.9214C81.1223 37.0505 80.63 37.1195 80.1216 37.1195C77.0838 37.1195 74.6211 34.6568 74.6211 31.619C74.6211 28.5811 77.0838 26.1185 80.1216 26.1185C80.63 26.1185 81.1224 26.1875 81.5897 26.3166C81.4607 25.8494 81.3918 25.3573 81.3918 24.8491C81.3918 21.8113 83.8545 19.3486 86.8923 19.3486C89.9301 19.3486 92.3928 21.8113 92.3928 24.8491Z" fill="#FFEB00"/>
</svg>
