<svg width="95" height="63" fill="none" xmlns="http://www.w3.org/2000/svg"><mask id="a" style="mask-type:alpha" maskUnits="userSpaceOnUse" x="0" y="0" width="95" height="63"><path fill="#F2F2F2" d="M0 0h95v63H0z"/></mask><g style="mix-blend-mode:overlay" opacity=".5" filter="url(#b)" mask="url(#a)"><path fill-rule="evenodd" clip-rule="evenodd" d="M63.702 35.188c5.638-2.608 9.23-6.552 9.23-10.964C72.931 16.368 61.544 10 47.5 10c-14.045 0-25.43 6.368-25.43 14.224 0 4.412 3.591 8.356 9.229 10.964-9.642 2.462-16.126 7.054-16.126 12.312 0 5.395 6.827 10.09 16.887 12.5H22.5C15.596 60 10 65.596 10 72.5S15.596 85 22.5 85h50C79.404 85 85 79.404 85 72.5S79.404 60 72.5 60h-9.56c10.061-2.41 16.888-7.105 16.888-12.5 0-5.258-6.484-9.85-16.126-12.312Z" fill="#121212"/></g><defs><filter id="b" x="6" y="6" width="83" height="83" filterUnits="userSpaceOnUse" color-interpolation-filters="sRGB"><feFlood flood-opacity="0" result="BackgroundImageFix"/><feBlend in="SourceGraphic" in2="BackgroundImageFix" result="shape"/><feGaussianBlur stdDeviation="2" result="effect1_foregroundBlur_2608_26033"/></filter></defs></svg>