<svg width="95" height="63" fill="none" xmlns="http://www.w3.org/2000/svg"><mask id="a" style="mask-type:alpha" maskUnits="userSpaceOnUse" x="0" y="0" width="95" height="63"><path fill="#F2F2F2" d="M0 0h95v63H0z"/></mask><g style="mix-blend-mode:overlay" opacity=".3" filter="url(#b)" mask="url(#a)"><path fill-rule="evenodd" clip-rule="evenodd" d="M74.224 31.552C80.175 31.552 85 26.727 85 20.776S80.175 10 74.224 10s-10.776 4.825-10.776 10.776 4.825 10.776 10.776 10.776Zm-8.19 13.362c0 8.156-6.123 14.883-14.023 15.833.152 1.022.23 2.068.23 3.132C52.241 75.544 42.785 85 31.121 85 19.456 85 10 75.544 10 63.88c0-11.665 9.456-21.121 21.12-21.121 1.065 0 2.11.078 3.133.23.95-7.9 7.677-14.023 15.833-14.023 8.808 0 15.948 7.14 15.948 15.948Z" fill="#121212"/></g><defs><filter id="b" x="6" y="6" width="83" height="83" filterUnits="userSpaceOnUse" color-interpolation-filters="sRGB"><feFlood flood-opacity="0" result="BackgroundImageFix"/><feBlend in="SourceGraphic" in2="BackgroundImageFix" result="shape"/><feGaussianBlur stdDeviation="2" result="effect1_foregroundBlur_2608_26042"/></filter></defs></svg>