<svg width="95" height="63" fill="none" xmlns="http://www.w3.org/2000/svg"><mask id="a" style="mask-type:alpha" maskUnits="userSpaceOnUse" x="0" y="0" width="95" height="63"><path fill="#F2F2F2" d="M0 0h95v63H0z"/></mask><g style="mix-blend-mode:overlay" filter="url(#b)" fill="#121212" mask="url(#a)"><path d="M31.38 13.378c-1.664-4.504-8.038-4.504-9.702 0l-1.41 3.817a5.17 5.17 0 0 1-3.053 3.055l-3.842 1.424c-4.497 1.667-4.497 8.024 0 9.691l3.842 1.424a5.17 5.17 0 0 1 3.053 3.056l1.41 3.816c1.664 4.504 8.038 4.504 9.702 0l1.41-3.816a5.17 5.17 0 0 1 3.053-3.056l3.842-1.424c4.497-1.666 4.497-8.024 0-9.691l-3.842-1.424a5.17 5.17 0 0 1-3.053-3.055l-1.41-3.817ZM63.243 30.97c-2.773-7.506-13.396-7.506-16.17 0l-2.97 8.038a8.616 8.616 0 0 1-5.088 5.093l-8.076 2.993c-7.496 2.778-7.496 13.374 0 16.153l8.076 2.993a8.616 8.616 0 0 1 5.089 5.092l2.97 8.038c2.773 7.507 13.396 7.507 16.17 0l2.969-8.038a8.616 8.616 0 0 1 5.088-5.092l8.077-2.993c7.496-2.779 7.496-13.375 0-16.153l-8.077-2.993a8.616 8.616 0 0 1-5.088-5.093l-2.97-8.037Z"/></g><defs><filter id="b" x="6" y="6" width="83" height="83" filterUnits="userSpaceOnUse" color-interpolation-filters="sRGB"><feFlood flood-opacity="0" result="BackgroundImageFix"/><feBlend in="SourceGraphic" in2="BackgroundImageFix" result="shape"/><feGaussianBlur stdDeviation="2" result="effect1_foregroundBlur_2608_26027"/></filter></defs></svg>