<svg width="24" height="24" fill="none" xmlns="http://www.w3.org/2000/svg"><path fill-rule="evenodd" clip-rule="evenodd" d="M12.024 3a.81.81 0 0 0-.574.237L7.796 6.89a.813.813 0 0 0 .002 1.146.808.808 0 0 0 1.144 0l2.271-2.271V15.5a.811.811 0 0 0 1.622 0V5.766l2.271 2.27a.805.805 0 0 0 1.144 0 .81.81 0 0 0 0-1.145l-3.652-3.654A.815.815 0 0 0 12.024 3Zm7.459 12.313a.811.811 0 0 1 1.622-.002v5.224c0 .802-.652 1.456-1.456 1.456H4.353a1.457 1.457 0 0 1-1.455-1.456v-5.224a.81.81 0 1 1 1.62 0v4.582c0 .267.217.483.482.483h14a.484.484 0 0 0 .483-.483v-4.58Z" fill="#F2F2F2"/></svg>