<svg width="32" height="32" fill="none" xmlns="http://www.w3.org/2000/svg"><circle opacity=".5" cx="16" cy="16" r="16" fill="#121212"/><path d="M24 10H8M20 10V8.5c0-.398-.169-.78-.469-1.06-.3-.282-.707-.44-1.131-.44h-4.8c-.424 0-.831.158-1.131.44-.3.28-.469.662-.469 1.06V10" stroke="#F2F2F2" stroke-linecap="round" stroke-linejoin="round"/><path fill-rule="evenodd" clip-rule="evenodd" d="M23 24.25V10H9v14.25c0 .199.082.39.228.53.146.141.344.22.55.22h12.444a.793.793 0 0 0 .55-.22.736.736 0 0 0 .228-.53ZM12.5 13a.5.5 0 0 0-1 0v9a.5.5 0 0 0 1 0v-9Zm3.5-.5a.5.5 0 0 1 .5.5v9a.5.5 0 0 1-1 0v-9a.5.5 0 0 1 .5-.5Zm4.5.5a.5.5 0 0 0-1 0v9a.5.5 0 0 0 1 0v-9Z" fill="#F2F2F2"/></svg>