<svg width="40" height="40" viewBox="0 0 40 40" fill="none" xmlns="http://www.w3.org/2000/svg">
<path fill-rule="evenodd" clip-rule="evenodd" d="M38 20C38 29.9411 29.9411 38 20 38C15.3928 38 11.1898 36.2691 8.00602 33.422L33.422 8.00602C36.2691 11.1898 38 15.3928 38 20ZM6.59104 32.0086L32.0086 6.59104C28.823 3.73623 24.6143 2 20 2C10.0589 2 2 10.0589 2 20C2 24.6143 3.73623 28.823 6.59104 32.0086ZM40 20C40 31.0457 31.0457 40 20 40C8.9543 40 0 31.0457 0 20C0 8.9543 8.9543 0 20 0C31.0457 0 40 8.9543 40 20Z" fill="#BFBFBF"/>
</svg>
