<svg width="24" height="24" viewBox="0 0 24 24" fill="none" xmlns="http://www.w3.org/2000/svg">
<path fill-rule="evenodd" clip-rule="evenodd" d="M18.5 11.6986V20C18.5 20.2761 18.2761 20.5 18 20.5H4C3.72386 20.5 3.5 20.2761 3.5 20V6C3.5 5.72386 3.72386 5.5 4 5.5H12.3014L13.8014 4H4C2.89543 4 2 4.89543 2 6V20C2 21.1046 2.89543 22 4 22H18C19.1046 22 20 21.1046 20 20V10.1986L18.5 11.6986Z" fill="#121212"/>
<path fill-rule="evenodd" clip-rule="evenodd" d="M9.54777 15.0014H12.8344L20.9772 6.8575L17.4145 3.2948L17.1428 3.02309L9.16044 11.0065C9.10957 11.0574 9.06922 11.1178 9.0417 11.1842C9.01417 11.2507 9 11.3219 9 11.3938V14.4536C9 14.5989 9.05771 14.7382 9.16044 14.8409C9.26317 14.9437 9.40249 15.0014 9.54777 15.0014ZM17.8498 2.31594L18.1216 2.5877L21.6842 6.15034L22.8396 4.99484C22.9423 4.89212 23 4.75279 23 4.60751C23 4.46223 22.9423 4.3229 22.8396 4.22018L19.7798 1.16044C19.6771 1.05771 19.5378 1 19.3925 1C19.2472 1 19.1079 1.05771 19.0052 1.16044L17.8498 2.31594Z" fill="#121212"/>
</svg>
