<svg width="24" height="24" fill="none" xmlns="http://www.w3.org/2000/svg"><path fill-rule="evenodd" clip-rule="evenodd" d="M18.5 11.699V20a.5.5 0 0 1-.5.5H4a.5.5 0 0 1-.5-.5V6a.5.5 0 0 1 .5-.5h8.301l1.5-1.5H4a2 2 0 0 0-2 2v14a2 2 0 0 0 2 2h14a2 2 0 0 0 2-2v-9.801l-1.5 1.5Z" fill="#121212"/><path fill-rule="evenodd" clip-rule="evenodd" d="M9.548 15.001h3.286l8.143-8.143-3.563-3.563-.271-.272-7.983 7.984a.549.549 0 0 0-.16.387v3.06a.548.548 0 0 0 .548.547ZM17.85 2.316l.272.272 3.562 3.562 1.156-1.155a.548.548 0 0 0 0-.775l-3.06-3.06a.548.548 0 0 0-.775 0L17.85 2.316Z" fill="#121212"/></svg>