<svg width="24" height="24" viewBox="0 0 24 24" fill="none" xmlns="http://www.w3.org/2000/svg">
<path d="M12 14C13.1046 14 14 13.1046 14 12C14 10.8954 13.1046 10 12 10C10.8954 10 10 10.8954 10 12C10 13.1046 10.8954 14 12 14Z" fill="#F2F2F2"/>
<path d="M4.5 14C5.60457 14 6.5 13.1046 6.5 12C6.5 10.8954 5.60457 10 4.5 10C3.39543 10 2.5 10.8954 2.5 12C2.5 13.1046 3.39543 14 4.5 14Z" fill="#F2F2F2"/>
<path d="M19.5 14C20.6046 14 21.5 13.1046 21.5 12C21.5 10.8954 20.6046 10 19.5 10C18.3954 10 17.5 10.8954 17.5 12C17.5 13.1046 18.3954 14 19.5 14Z" fill="#F2F2F2"/>
</svg>
